<svg width="512" height="512" viewBox="0 0 512 512" fill="none" xmlns="http://www.w3.org/2000/svg">
<path d="M206 159C211.011 159 215.899 159.528 220.611 160.528L239.5 173.5L246.5 182L241.275 193.566C232.233 184.565 219.767 179 206 179C178.386 179 156 201.386 156 229C156 246.267 164.753 261.49 178.064 270.474L165 284L146.913 266.548C140.004 255.698 136 242.817 136 229C136 190.34 167.34 159 206 159Z" fill="black" fill-opacity="0.2"/>
<path d="M203 157C224.799 157 244.27 166.965 257.108 182.587L241.963 195.668C232.798 184.286 218.751 177 203 177C175.386 177 153 199.386 153 227C153 254.614 175.386 277 203 277C216.986 277 229.628 271.255 238.702 262H263.634C251.53 282.923 228.91 297 203 297C188.494 297 175.019 292.587 163.843 285.031L140.995 313.452L144.893 316.586L107.926 362.569L90 348.158L126.967 302.175L130.863 305.308L153.793 276.784C140.955 264.095 133 246.477 133 227C133 188.34 164.34 157 203 157Z" fill="white"/>
<path d="M191.772 227.041C195.181 230.344 198.591 233.646 202 236.948V253.207L200.67 251.919L182.439 237.81C180.656 236.429 178.872 235.049 177.088 233.668C180.363 229.89 183.637 226.11 186.912 222.332C188.532 223.902 190.152 225.471 191.772 227.041ZM275.42 178.982C258.561 197.322 241.701 215.661 224.842 234H211.108C232.371 215.481 253.634 196.963 274.896 178.444C276.598 176.963 278.299 175.482 280 174C278.473 175.661 276.947 177.322 275.42 178.982Z" fill="white"/>
<path d="M204 236.306H207.715V244.147L214.533 236.306H218.86L207.715 248.62V252.788H204V236.306ZM212.347 242.734L219.259 252.788H214.815L209.878 245.677L212.347 242.734Z" fill="white"/>
<path d="M221.571 236.306H225.285V249.657H232.316V252.788H221.571V236.306Z" fill="white"/>
<path d="M240.161 236.306H243.97L250.976 252.788H247.026L241.948 240.026L236.845 252.788H232.989L240.161 236.306ZM236.987 246.596H246.697V249.492H236.987V246.596Z" fill="white"/>
<path d="M260.094 236.306C262.241 236.306 263.903 236.808 265.078 237.813C266.27 238.802 266.865 240.199 266.865 242.004C266.865 243.904 266.27 245.387 265.078 246.454C263.903 247.506 262.241 248.032 260.094 248.032H256.661V252.788H252.946V236.306H260.094ZM260.094 245.018C261.113 245.018 261.904 244.783 262.468 244.312C263.048 243.825 263.338 243.095 263.338 242.122C263.338 241.18 263.048 240.474 262.468 240.003C261.904 239.532 261.113 239.296 260.094 239.296H256.661V245.018H260.094ZM259.647 246.643H263.268L267.265 252.788H263.056L259.647 246.643Z" fill="white"/>
<path d="M270.195 236.306H273.91V252.788H270.195V236.306Z" fill="white"/>
<path d="M277.801 236.306H289.627V239.296H281.516V243.464H288.945V246.454H281.516V252.788H277.801V236.306Z" fill="white"/>
<path d="M292.019 236.306H295.734V252.788H292.019V236.306Z" fill="white"/>
<path d="M299.625 236.306H303.34V244.147L310.158 236.306H314.484L303.34 248.62V252.788H299.625V236.306ZM307.971 242.734L314.884 252.788H310.44L305.503 245.677L307.971 242.734Z" fill="white"/>
<path d="M322.485 236.306H326.294L333.301 252.788H329.351L324.272 240.026L319.17 252.788H315.314L322.485 236.306ZM319.311 246.596H329.022V249.492H319.311V246.596Z" fill="white"/>
<path d="M346.018 240.78C345.438 240.419 344.835 240.12 344.208 239.885C343.596 239.634 343.001 239.446 342.421 239.32C341.857 239.179 341.347 239.108 340.893 239.108C340.266 239.108 339.756 239.234 339.364 239.485C338.988 239.72 338.8 240.081 338.8 240.568C338.8 241.023 338.957 241.4 339.27 241.698C339.599 241.981 340.023 242.216 340.54 242.404C341.057 242.577 341.629 242.758 342.256 242.946C342.883 243.119 343.502 243.323 344.114 243.558C344.741 243.794 345.313 244.1 345.83 244.476C346.363 244.837 346.778 245.308 347.076 245.889C347.39 246.454 347.546 247.161 347.546 248.008C347.546 249.076 347.264 249.978 346.7 250.716C346.136 251.454 345.36 252.019 344.372 252.411C343.4 252.804 342.311 253 341.104 253C340.195 253 339.302 252.89 338.424 252.67C337.546 252.451 336.715 252.145 335.932 251.752C335.163 251.344 334.466 250.873 333.839 250.339L335.32 247.42C335.885 247.922 336.504 248.361 337.178 248.738C337.867 249.115 338.557 249.405 339.247 249.609C339.936 249.813 340.571 249.916 341.151 249.916C341.919 249.916 342.515 249.766 342.938 249.468C343.377 249.17 343.596 248.746 343.596 248.197C343.596 247.726 343.44 247.349 343.126 247.066C342.813 246.784 342.397 246.548 341.88 246.36C341.363 246.156 340.791 245.976 340.164 245.819C339.537 245.646 338.91 245.45 338.283 245.23C337.656 244.994 337.084 244.704 336.566 244.359C336.049 243.998 335.626 243.542 335.297 242.993C334.983 242.444 334.826 241.745 334.826 240.898C334.826 239.893 335.093 239.03 335.626 238.307C336.159 237.57 336.903 237.005 337.86 236.612C338.816 236.204 339.929 236 341.198 236C342.358 236 343.487 236.173 344.584 236.518C345.681 236.848 346.637 237.279 347.452 237.813L346.018 240.78Z" fill="white"/>
<path d="M350.385 236.306H354.1V252.788H350.385V236.306Z" fill="white"/>
<path d="M358.931 249.35C359.464 249.35 359.895 249.523 360.224 249.868C360.569 250.198 360.741 250.63 360.741 251.163C360.741 251.697 360.569 252.137 360.224 252.482C359.895 252.827 359.464 253 358.931 253C358.414 253 357.982 252.827 357.638 252.482C357.293 252.137 357.12 251.697 357.12 251.163C357.12 250.63 357.293 250.198 357.638 249.868C357.982 249.523 358.414 249.35 358.931 249.35Z" fill="white"/>
<path d="M363.759 236.306H367.474V252.788H363.759V236.306Z" fill="white"/>
<path d="M378.324 236.306C379.609 236.306 380.777 236.51 381.827 236.918C382.893 237.311 383.81 237.876 384.578 238.614C385.346 239.336 385.942 240.199 386.365 241.204C386.788 242.208 387 243.323 387 244.547C387 245.756 386.788 246.862 386.365 247.867C385.942 248.872 385.338 249.743 384.555 250.481C383.771 251.218 382.838 251.791 381.757 252.199C380.691 252.592 379.508 252.788 378.207 252.788H371.365V236.306H378.324ZM378.418 249.751C379.124 249.751 379.766 249.625 380.346 249.374C380.926 249.123 381.428 248.77 381.851 248.314C382.29 247.843 382.627 247.294 382.862 246.666C383.097 246.038 383.215 245.34 383.215 244.571C383.215 243.801 383.089 243.103 382.838 242.475C382.588 241.831 382.243 241.274 381.804 240.803C381.365 240.317 380.84 239.948 380.229 239.697C379.633 239.446 378.975 239.32 378.254 239.32H375.079V249.751H378.418Z" fill="white"/>
</svg>
