<svg width="512" height="512" viewBox="0 0 512 512" fill="none" xmlns="http://www.w3.org/2000/svg">
<path d="M206 159C211.475 159 216.804 159.629 221.917 160.818L239.783 173.088L239.841 173.128L239.886 173.183L246.886 181.683L247.084 181.922L246.956 182.206L241.652 193.948C232.582 184.723 219.96 179 206 179C178.386 179 156 201.386 156 229C156 246.45 164.941 261.808 178.489 270.753L165.359 284.348L165.013 284.707L164.652 284.359L148.177 268.462C140.494 257.226 136 243.638 136 229C136 190.34 167.34 159 206 159Z" fill="black" fill-opacity="0.2"/>
<path d="M203 157C224.799 157 244.27 166.965 257.108 182.587L241.963 195.668C232.798 184.286 218.751 177 203 177C175.386 177 153 199.386 153 227C153 254.614 175.386 277 203 277C216.986 277 229.628 271.255 238.702 262H263.634C251.53 282.923 228.91 297 203 297C188.494 297 175.019 292.587 163.843 285.031L140.995 313.452L144.893 316.586L107.926 362.569L90 348.158L126.967 302.175L130.863 305.308L153.793 276.784C140.955 264.095 133 246.477 133 227C133 188.34 164.34 157 203 157Z" fill="#7EBD20"/>
<path d="M275.42 178.982C253.14 203.218 230.859 227.455 208.579 251.69L204.29 255.426L200.67 251.919L182.439 237.81C180.656 236.429 178.872 235.049 177.088 233.668C180.363 229.89 183.637 226.11 186.912 222.332C188.532 223.902 190.152 225.471 191.772 227.041C196.085 231.218 200.397 235.396 204.709 239.573C228.105 219.197 251.501 198.821 274.896 178.444C276.598 176.963 278.299 175.482 280 174C278.473 175.661 276.947 177.322 275.42 178.982Z" fill="#7EBD20"/>
</svg>
